<mxfile host="app.diagrams.net" modified="2021-03-18T16:01:25.840Z" agent="5.0 (X11; Linux x86_64) AppleWebKit/537.36 (KHTML, like Gecko) Chrome/89.0.4389.90 Safari/537.36" etag="wiVIQg2M0B1srjXr4b53" version="14.4.9" type="github">
  <diagram name="Page-1" id="e56a1550-8fbb-45ad-956c-1786394a9013">
    <mxGraphModel dx="1364" dy="833" grid="1" gridSize="10" guides="1" tooltips="1" connect="1" arrows="1" fold="1" page="1" pageScale="1" pageWidth="1100" pageHeight="850" background="#ffffff" math="0" shadow="0">
      <root>
        <mxCell id="0" />
        <mxCell id="1" parent="0" />
        <mxCell id="BqsD8v3phepsJ8Mu287X-13" value="Usuarios" style="shape=table;startSize=30;container=1;collapsible=1;childLayout=tableLayout;fixedRows=1;rowLines=0;fontStyle=1;align=center;resizeLast=1;" vertex="1" parent="1">
          <mxGeometry x="320" y="60" width="180" height="400" as="geometry" />
        </mxCell>
        <mxCell id="BqsD8v3phepsJ8Mu287X-14" value="" style="shape=partialRectangle;collapsible=0;dropTarget=0;pointerEvents=0;fillColor=none;top=0;left=0;bottom=1;right=0;points=[[0,0.5],[1,0.5]];portConstraint=eastwest;" vertex="1" parent="BqsD8v3phepsJ8Mu287X-13">
          <mxGeometry y="30" width="180" height="30" as="geometry" />
        </mxCell>
        <mxCell id="BqsD8v3phepsJ8Mu287X-15" value="PK" style="shape=partialRectangle;connectable=0;fillColor=none;top=0;left=0;bottom=0;right=0;fontStyle=1;overflow=hidden;" vertex="1" parent="BqsD8v3phepsJ8Mu287X-14">
          <mxGeometry width="30" height="30" as="geometry" />
        </mxCell>
        <mxCell id="BqsD8v3phepsJ8Mu287X-16" value="id" style="shape=partialRectangle;connectable=0;fillColor=none;top=0;left=0;bottom=0;right=0;align=left;spacingLeft=6;fontStyle=5;overflow=hidden;" vertex="1" parent="BqsD8v3phepsJ8Mu287X-14">
          <mxGeometry x="30" width="150" height="30" as="geometry" />
        </mxCell>
        <mxCell id="BqsD8v3phepsJ8Mu287X-17" value="" style="shape=partialRectangle;collapsible=0;dropTarget=0;pointerEvents=0;fillColor=none;top=0;left=0;bottom=0;right=0;points=[[0,0.5],[1,0.5]];portConstraint=eastwest;" vertex="1" parent="BqsD8v3phepsJ8Mu287X-13">
          <mxGeometry y="60" width="180" height="30" as="geometry" />
        </mxCell>
        <mxCell id="BqsD8v3phepsJ8Mu287X-18" value="" style="shape=partialRectangle;connectable=0;fillColor=none;top=0;left=0;bottom=0;right=0;editable=1;overflow=hidden;" vertex="1" parent="BqsD8v3phepsJ8Mu287X-17">
          <mxGeometry width="30" height="30" as="geometry" />
        </mxCell>
        <mxCell id="BqsD8v3phepsJ8Mu287X-19" value="nombre: string" style="shape=partialRectangle;connectable=0;fillColor=none;top=0;left=0;bottom=0;right=0;align=left;spacingLeft=6;overflow=hidden;" vertex="1" parent="BqsD8v3phepsJ8Mu287X-17">
          <mxGeometry x="30" width="150" height="30" as="geometry" />
        </mxCell>
        <mxCell id="BqsD8v3phepsJ8Mu287X-20" value="" style="shape=partialRectangle;collapsible=0;dropTarget=0;pointerEvents=0;fillColor=none;top=0;left=0;bottom=0;right=0;points=[[0,0.5],[1,0.5]];portConstraint=eastwest;" vertex="1" parent="BqsD8v3phepsJ8Mu287X-13">
          <mxGeometry y="90" width="180" height="30" as="geometry" />
        </mxCell>
        <mxCell id="BqsD8v3phepsJ8Mu287X-21" value="" style="shape=partialRectangle;connectable=0;fillColor=none;top=0;left=0;bottom=0;right=0;editable=1;overflow=hidden;" vertex="1" parent="BqsD8v3phepsJ8Mu287X-20">
          <mxGeometry width="30" height="30" as="geometry" />
        </mxCell>
        <mxCell id="BqsD8v3phepsJ8Mu287X-22" value="apellidos: string" style="shape=partialRectangle;connectable=0;fillColor=none;top=0;left=0;bottom=0;right=0;align=left;spacingLeft=6;overflow=hidden;" vertex="1" parent="BqsD8v3phepsJ8Mu287X-20">
          <mxGeometry x="30" width="150" height="30" as="geometry" />
        </mxCell>
        <mxCell id="BqsD8v3phepsJ8Mu287X-23" value="" style="shape=partialRectangle;collapsible=0;dropTarget=0;pointerEvents=0;fillColor=none;top=0;left=0;bottom=0;right=0;points=[[0,0.5],[1,0.5]];portConstraint=eastwest;" vertex="1" parent="BqsD8v3phepsJ8Mu287X-13">
          <mxGeometry y="120" width="180" height="30" as="geometry" />
        </mxCell>
        <mxCell id="BqsD8v3phepsJ8Mu287X-24" value="" style="shape=partialRectangle;connectable=0;fillColor=none;top=0;left=0;bottom=0;right=0;editable=1;overflow=hidden;" vertex="1" parent="BqsD8v3phepsJ8Mu287X-23">
          <mxGeometry width="30" height="30" as="geometry" />
        </mxCell>
        <mxCell id="BqsD8v3phepsJ8Mu287X-25" value="correo_electronico: string" style="shape=partialRectangle;connectable=0;fillColor=none;top=0;left=0;bottom=0;right=0;align=left;spacingLeft=6;overflow=hidden;" vertex="1" parent="BqsD8v3phepsJ8Mu287X-23">
          <mxGeometry x="30" width="150" height="30" as="geometry" />
        </mxCell>
        <mxCell id="BqsD8v3phepsJ8Mu287X-27" value="" style="shape=partialRectangle;collapsible=0;dropTarget=0;pointerEvents=0;fillColor=none;top=0;left=0;bottom=0;right=0;points=[[0,0.5],[1,0.5]];portConstraint=eastwest;" vertex="1" parent="1">
          <mxGeometry x="320" y="210" width="180" height="30" as="geometry" />
        </mxCell>
        <mxCell id="BqsD8v3phepsJ8Mu287X-28" value="" style="shape=partialRectangle;connectable=0;fillColor=none;top=0;left=0;bottom=0;right=0;editable=1;overflow=hidden;" vertex="1" parent="BqsD8v3phepsJ8Mu287X-27">
          <mxGeometry width="30" height="30" as="geometry" />
        </mxCell>
        <mxCell id="BqsD8v3phepsJ8Mu287X-29" value="celular: string" style="shape=partialRectangle;connectable=0;fillColor=none;top=0;left=0;bottom=0;right=0;align=left;spacingLeft=6;overflow=hidden;" vertex="1" parent="BqsD8v3phepsJ8Mu287X-27">
          <mxGeometry x="30" width="150" height="30" as="geometry" />
        </mxCell>
        <mxCell id="BqsD8v3phepsJ8Mu287X-30" value="" style="shape=partialRectangle;collapsible=0;dropTarget=0;pointerEvents=0;fillColor=none;top=0;left=0;bottom=0;right=0;points=[[0,0.5],[1,0.5]];portConstraint=eastwest;" vertex="1" parent="1">
          <mxGeometry x="320" y="240" width="180" height="30" as="geometry" />
        </mxCell>
        <mxCell id="BqsD8v3phepsJ8Mu287X-31" value="" style="shape=partialRectangle;connectable=0;fillColor=none;top=0;left=0;bottom=0;right=0;editable=1;overflow=hidden;" vertex="1" parent="BqsD8v3phepsJ8Mu287X-30">
          <mxGeometry width="30" height="30" as="geometry" />
        </mxCell>
        <mxCell id="BqsD8v3phepsJ8Mu287X-32" value="pais: string" style="shape=partialRectangle;connectable=0;fillColor=none;top=0;left=0;bottom=0;right=0;align=left;spacingLeft=6;overflow=hidden;" vertex="1" parent="BqsD8v3phepsJ8Mu287X-30">
          <mxGeometry x="30" width="150" height="30" as="geometry" />
        </mxCell>
        <mxCell id="BqsD8v3phepsJ8Mu287X-33" value="" style="shape=partialRectangle;collapsible=0;dropTarget=0;pointerEvents=0;fillColor=none;top=0;left=0;bottom=0;right=0;points=[[0,0.5],[1,0.5]];portConstraint=eastwest;" vertex="1" parent="1">
          <mxGeometry x="320" y="270" width="180" height="30" as="geometry" />
        </mxCell>
        <mxCell id="BqsD8v3phepsJ8Mu287X-34" value="" style="shape=partialRectangle;connectable=0;fillColor=none;top=0;left=0;bottom=0;right=0;editable=1;overflow=hidden;" vertex="1" parent="BqsD8v3phepsJ8Mu287X-33">
          <mxGeometry width="30" height="30" as="geometry" />
        </mxCell>
        <mxCell id="BqsD8v3phepsJ8Mu287X-35" value="estado: string" style="shape=partialRectangle;connectable=0;fillColor=none;top=0;left=0;bottom=0;right=0;align=left;spacingLeft=6;overflow=hidden;" vertex="1" parent="BqsD8v3phepsJ8Mu287X-33">
          <mxGeometry x="30" width="150" height="30" as="geometry" />
        </mxCell>
        <mxCell id="BqsD8v3phepsJ8Mu287X-36" value="" style="shape=partialRectangle;collapsible=0;dropTarget=0;pointerEvents=0;fillColor=none;top=0;left=0;bottom=0;right=0;points=[[0,0.5],[1,0.5]];portConstraint=eastwest;" vertex="1" parent="1">
          <mxGeometry x="320" y="300" width="180" height="30" as="geometry" />
        </mxCell>
        <mxCell id="BqsD8v3phepsJ8Mu287X-37" value="" style="shape=partialRectangle;connectable=0;fillColor=none;top=0;left=0;bottom=0;right=0;editable=1;overflow=hidden;" vertex="1" parent="BqsD8v3phepsJ8Mu287X-36">
          <mxGeometry width="30" height="30" as="geometry" />
        </mxCell>
        <mxCell id="BqsD8v3phepsJ8Mu287X-38" value="municipio: string" style="shape=partialRectangle;connectable=0;fillColor=none;top=0;left=0;bottom=0;right=0;align=left;spacingLeft=6;overflow=hidden;" vertex="1" parent="BqsD8v3phepsJ8Mu287X-36">
          <mxGeometry x="30" width="150" height="30" as="geometry" />
        </mxCell>
        <mxCell id="BqsD8v3phepsJ8Mu287X-39" value="" style="shape=partialRectangle;collapsible=0;dropTarget=0;pointerEvents=0;fillColor=none;top=0;left=0;bottom=0;right=0;points=[[0,0.5],[1,0.5]];portConstraint=eastwest;" vertex="1" parent="1">
          <mxGeometry x="320" y="330" width="180" height="30" as="geometry" />
        </mxCell>
        <mxCell id="BqsD8v3phepsJ8Mu287X-40" value="" style="shape=partialRectangle;connectable=0;fillColor=none;top=0;left=0;bottom=0;right=0;editable=1;overflow=hidden;" vertex="1" parent="BqsD8v3phepsJ8Mu287X-39">
          <mxGeometry width="30" height="30" as="geometry" />
        </mxCell>
        <mxCell id="BqsD8v3phepsJ8Mu287X-41" value="codigo_postal: string" style="shape=partialRectangle;connectable=0;fillColor=none;top=0;left=0;bottom=0;right=0;align=left;spacingLeft=6;overflow=hidden;" vertex="1" parent="BqsD8v3phepsJ8Mu287X-39">
          <mxGeometry x="30" width="150" height="30" as="geometry" />
        </mxCell>
        <mxCell id="BqsD8v3phepsJ8Mu287X-42" value="" style="shape=partialRectangle;collapsible=0;dropTarget=0;pointerEvents=0;fillColor=none;top=0;left=0;bottom=0;right=0;points=[[0,0.5],[1,0.5]];portConstraint=eastwest;" vertex="1" parent="1">
          <mxGeometry x="320" y="360" width="180" height="30" as="geometry" />
        </mxCell>
        <mxCell id="BqsD8v3phepsJ8Mu287X-43" value="" style="shape=partialRectangle;connectable=0;fillColor=none;top=0;left=0;bottom=0;right=0;editable=1;overflow=hidden;" vertex="1" parent="BqsD8v3phepsJ8Mu287X-42">
          <mxGeometry width="30" height="30" as="geometry" />
        </mxCell>
        <mxCell id="BqsD8v3phepsJ8Mu287X-44" value="direccion: string" style="shape=partialRectangle;connectable=0;fillColor=none;top=0;left=0;bottom=0;right=0;align=left;spacingLeft=6;overflow=hidden;" vertex="1" parent="BqsD8v3phepsJ8Mu287X-42">
          <mxGeometry x="30" width="150" height="30" as="geometry" />
        </mxCell>
        <mxCell id="BqsD8v3phepsJ8Mu287X-45" value="" style="shape=partialRectangle;collapsible=0;dropTarget=0;pointerEvents=0;fillColor=none;top=0;left=0;bottom=0;right=0;points=[[0,0.5],[1,0.5]];portConstraint=eastwest;" vertex="1" parent="1">
          <mxGeometry x="320" y="390" width="180" height="30" as="geometry" />
        </mxCell>
        <mxCell id="BqsD8v3phepsJ8Mu287X-46" value="" style="shape=partialRectangle;connectable=0;fillColor=none;top=0;left=0;bottom=0;right=0;editable=1;overflow=hidden;" vertex="1" parent="BqsD8v3phepsJ8Mu287X-45">
          <mxGeometry width="30" height="30" as="geometry" />
        </mxCell>
        <mxCell id="BqsD8v3phepsJ8Mu287X-47" value="direccion: string" style="shape=partialRectangle;connectable=0;fillColor=none;top=0;left=0;bottom=0;right=0;align=left;spacingLeft=6;overflow=hidden;" vertex="1" parent="BqsD8v3phepsJ8Mu287X-45">
          <mxGeometry x="30" width="150" height="30" as="geometry" />
        </mxCell>
      </root>
    </mxGraphModel>
  </diagram>
</mxfile>
